# xmcd CD database file
#
# Track frame offsets:
#	150
#	27055
#	50609
#	75411
#	101275
#	122034
#	148427
#	168982
#	203222
#
# Disc length: 2962 seconds
#
# Revision: 0
# Processed by: cddbd v1.5.2PL0 Copyright (c) Steve Scherf et al.
# Submitted via: CDex 1.70beta2
#
DISCID=730b9009
DTITLE=Firehorns Joachim Kunze - Let's Swunk
DYEAR=2006
DGENRE=Jazz
TTITLE0=And Now....
TTITLE1=Segelboot
TTITLE2=Child Of Love
TTITLE3=I'm Still Here
TTITLE4=It's Better To Smile
TTITLE5=Live Is Easy With You
TTITLE6=Monsei
TTITLE7=I Give It All To You
TTITLE8=I Can Feel You
EXTD=YEAR: 2006
EXTT0=
EXTT1=
EXTT2=
EXTT3=
EXTT4=
EXTT5=
EXTT6=
EXTT7=
EXTT8=
PLAYORDER=
